<svg xmlns="http://www.w3.org/2000/svg" xmlns:xlink="http://www.w3.org/1999/xlink" viewBox="0 0 23.49 11.77"><defs><style>.cls-1{fill:none;}.cls-2{clip-path:url(#clip-path);}.cls-3{fill:#231f20;}</style><clipPath id="clip-path" transform="translate(-0.09 -0.48)"><rect class="cls-1" width="23.7" height="12.99"/></clipPath></defs><g id="Layer_2" data-name="Layer 2"><g id="Layer_1-2" data-name="Layer 1"><g class="cls-2"><path class="cls-3" d="M22.66,8.33C22.29,7.65,18.35,1.45,14,.68A16.83,16.83,0,0,0,1.59,3.84L1,3.34c-.63-.51-.6.06-.6.06s.25.31.68.81C.75,4.44.42,4.7.11,5c-.11.41.5.27,1.52-.11C3.7,7.2,8.19,11.52,11.5,12.08c5.31.91,7-2.31,8.71-2.36s3.24.52,3.36,0S23,9,22.66,8.33m-9.75,1.72C9,10.53,5.43,7.19,2.41,4.55,4.67,3.65,8.18,2.16,11,2.19c0,0,4.12-.1,8,5.37-1.25.12-2.61,2.06-6.07,2.49" transform="translate(-0.09 -0.48)"/><path class="cls-3" d="M16.58,4.76C15,2.33,9.94.77,7.94,3.88a1.84,1.84,0,0,0-.27.69,5.3,5.3,0,0,1-.31-1C6.79,5.93,9.44,7.8,9.44,7.8h0c2,1.52,5.22,2.17,7,0A2.77,2.77,0,0,0,17,6.59a4.29,4.29,0,0,1,.35,1.1,3.52,3.52,0,0,0-.76-2.93M8.73,5.86a1.87,1.87,0,0,1,.7-2.46c1.49-.9,5-.62,5.37,1.39C15.13,6.46,13,6.88,13,6.88s1.52-1.7.2-2.64c-1.52-1.09-4.3-.8-4.51,1.62M12.89,6c-.26.51-.72.79-1,.64s-.34-.7-.08-1.21.73-.79,1-.63.34.69.08,1.2m2.32,2c-1.49.9-5,.63-5.37-1.38-.33-1.68,1.76-2.1,1.76-2.1s-1.52,1.7-.2,2.65c1.52,1.08,4.3.8,4.51-1.63a1.87,1.87,0,0,1-.7,2.46" transform="translate(-0.09 -0.48)"/></g></g></g></svg>